# xmcd
#
# Track frame offsets: 
#        150
#        5217
#        25552
#        45897
#        61970
#        76510
#        94927
#        116845
#        127105
#        142827
#        161512
#        174392
#        194790
#
# Disc length: 2905 seconds
#
# Revision: 0
# Processed by: cddbd v1.5.2PL0 Copyright (c) Steve Scherf et al.
# Submitted via: ExactAudioCopy v0.99pb4
#
DISCID=a30b570d
DTITLE=Phonograph - Phongraph
DYEAR=2006
DGENRE=Alt Country
TTITLE0=Proem
TTITLE1=In Your Mind
TTITLE2=Watch and Ward
TTITLE3=Radio Waves
TTITLE4=Parsons White
TTITLE5=Have I Told You
TTITLE6=Waltz from Jonas
TTITLE7=Interlude
TTITLE8=Thinking of You
TTITLE9=T.V. Screens
TTITLE10=Nu Americana
TTITLE11=You're a Giraffe
TTITLE12=Isobel
EXTD=
EXTT0=
EXTT1=
EXTT2=
EXTT3=
EXTT4=
EXTT5=
EXTT6=
EXTT7=
EXTT8=
EXTT9=
EXTT10=
EXTT11=
EXTT12=
PLAYORDER=
